<svg
    viewBox="0 0 800 100"
    width="100%"
    xmlns="http://www.w3.org/2000/svg"
  >
    
    <path
      d="M 0 98.5 V 41.67 M 4 98.5 V 62.79 M 8 98.5 V 62.76 M 12 98.5 V 56.08 M 16 98.5 V 56.24 M 20 98.5 V 59.78 M 24 98.5 V 56.51 M 28 98.5 V 56.97 M 32 98.5 V 57.91 M 36 98.5 V 53.21 M 40 98.5 V 45.03 M 44 98.5 V 47.53 M 48 98.5 V 39.24 M 52 98.5 V 38.73 M 56 98.5 V 46.83 M 60 98.5 V 35.39 M 64 98.5 V 32.12 M 68 98.5 V 50.28 M 72 98.5 V 29.41 M 76 98.5 V 51.27 M 80 98.5 V 53.99 M 84 98.5 V 37.43 M 88 98.5 V 39.42 M 92 98.5 V 37.58 M 96 98.5 V 40.93 M 100 98.5 V 35.58 M 104 98.5 V 33.53 M 108 98.5 V 54.67 M 112 98.5 V 47.78 M 116 98.5 V 47.1 M 120 98.5 V 42.35 M 124 98.5 V 25.75 M 128 98.5 V 15.97 M 132 98.5 V 25.11 M 136 98.5 V 46.88 M 140 98.5 V 46.26 M 144 98.5 V 49.91 M 148 98.5 V 49.7 M 152 98.5 V 46.11 M 156 98.5 V 36.6 M 160 98.5 V 25.4 M 164 98.5 V 35.59 M 168 98.5 V 30.97 M 172 98.5 V 39.04 M 176 98.5 V 33.25 M 180 98.5 V 23.38 M 184 98.5 V 7.82 M 188 98.5 V 51.24 M 192 98.5 V 54.66 M 196 98.5 V 55.35 M 200 98.5 V 54.71 M 204 98.5 V 56.57 M 208 98.5 V 16.66 M 212 98.5 V 22.38 M 216 98.5 V 13.05 M 220 98.5 V 18.31 M 224 98.5 V 35.8 M 228 98.5 V 40.14 M 232 98.5 V 56.07 M 236 98.5 V 52.58 M 240 98.5 V 41.26 M 244 98.5 V 41.74 M 248 98.5 V 36.48 M 252 98.5 V 58.2 M 256 98.5 V 57.31 M 260 98.5 V 27.96 M 264 98.5 V 30.62 M 268 98.5 V 30.65 M 272 98.5 V 58.73 M 276 98.5 V 54.94 M 280 98.5 V 41.96 M 284 98.5 V 36.43 M 288 98.5 V 37.58 M 292 98.5 V 51.74 M 296 98.5 V 50.05 M 300 98.5 V 47.68 M 304 98.5 V 43.19 M 308 98.5 V 42.72 M 312 98.5 V 29.1 M 316 98.5 V 39.45 M 320 98.5 V 46.2 M 324 98.5 V 44.34 M 328 98.5 V 39.78 M 332 98.5 V 42.46 M 336 98.5 V 44.72 M 340 98.5 V 34.05 M 344 98.5 V 34.28 M 348 98.5 V 25.8 M 352 98.5 V 29.98 M 356 98.5 V 11.05 M 360 98.5 V 20.08 M 364 98.5 V 28.56 M 368 98.5 V 40.65 M 372 98.5 V 44.13 M 376 98.5 V 1.5 M 380 98.5 V 28.43 M 384 98.5 V 1.79 M 388 98.5 V 42.57 M 392 98.5 V 50.94 M 396 98.5 V 40.99 M 400 98.5 V 43.07 M 404 98.5 V 45.6 M 408 98.5 V 63.74 M 412 98.5 V 56.53 M 416 98.5 V 47.06 M 420 98.5 V 47.69 M 424 98.5 V 51.35 M 428 98.5 V 40.86 M 432 98.5 V 32.9 M 436 98.5 V 34.91 M 440 98.5 V 47.33 M 444 98.5 V 44.29 M 448 98.5 V 36.44 M 452 98.5 V 41.55 M 456 98.5 V 36.38 M 460 98.5 V 44.01 M 464 98.5 V 22.03 M 468 98.5 V 46.38 M 472 98.5 V 35.66 M 476 98.5 V 62.99 M 480 98.5 V 54.89 M 484 98.5 V 39.75 M 488 98.5 V 44.7 M 492 98.5 V 38.4 M 496 98.5 V 40.95 M 500 98.5 V 34.59 M 504 98.5 V 32.81 M 508 98.5 V 39.72 M 512 98.5 V 33.11 M 516 98.5 V 35.24 M 520 98.5 V 44.57 M 524 98.5 V 28.77 M 528 98.5 V 43.97 M 532 98.5 V 45.91 M 536 98.5 V 43.05 M 540 98.5 V 35.74 M 544 98.5 V 37.34 M 548 98.5 V 48.64 M 552 98.5 V 50.88 M 556 98.5 V 36.11 M 560 98.5 V 38.81 M 564 98.5 V 36.72 M 568 98.5 V 17.9 M 572 98.5 V 31.38 M 576 98.5 V 57.54 M 580 98.5 V 28.36 M 584 98.5 V 28.12 M 588 98.5 V 37.54 M 592 98.5 V 22.29 M 596 98.5 V 21.08 M 600 98.5 V 7.23 M 604 98.5 V 29.74 M 608 98.5 V 50.04 M 612 98.5 V 38.23 M 616 98.5 V 27.17 M 620 98.5 V 27.7 M 624 98.5 V 33.66 M 628 98.5 V 46.24 M 632 98.5 V 38.78 M 636 98.5 V 47.31 M 640 98.5 V 42.04 M 644 98.5 V 42.87 M 648 98.5 V 43.69 M 652 98.5 V 52.64 M 656 98.5 V 44.41 M 660 98.5 V 26.06 M 664 98.5 V 22.18 M 668 98.5 V 29.23 M 672 98.5 V 37.47 M 676 98.5 V 35.38 M 680 98.5 V 39.81 M 684 98.5 V 32.87 M 688 98.5 V 43.12 M 692 98.5 V 48.69 M 696 98.5 V 54.29 M 700 98.5 V 53.28 M 704 98.5 V 68.27 M 708 98.5 V 50.47 M 712 98.5 V 49.93 M 716 98.5 V 48.09 M 720 98.5 V 10.24 M 724 98.5 V 34.71 M 728 98.5 V 44.66 M 732 98.5 V 37.34 M 736 98.5 V 36.44 M 740 98.5 V 59.99 M 744 98.5 V 60.32 M 748 98.5 V 59.92 M 752 98.5 V 81.36 M 756 98.5 V 70.69 M 760 98.5 V 55.18 M 764 98.5 V 49.12 M 768 98.5 V 50.84 M 772 98.5 V 42.97 M 776 98.5 V 56.89 M 780 98.5 V 52.04 M 784 98.5 V 49.07 M 788 98.5 V 50.97 M 792 98.5 V 50.94 M 796 98.5 V 48.99 "
      fill="#2f4b74"
      stroke="#2f4b74"
      stroke-width="3"
      stroke-linecap="round"
    />
  </svg>