<svg xmlns="http://www.w3.org/2000/svg" xmlns:xlink="http://www.w3.org/1999/xlink" xml:space="preserve" width="1212.2" height="624.6">
  <defs>
    <clipPath id="a" clipPathUnits="userSpaceOnUse">
      <path d="M429.2 0H783v197H429.2z" style="fill:#2053ad;fill-opacity:1;stroke-width:3.39357;stroke-linecap:round;stroke-dasharray:none"/>
    </clipPath>
  </defs>
  <path fill="#2f4b74" stroke="#2f4b74" stroke-linecap="round" stroke-width="5.1" d="M142.9 344.3v-143m4.6 143v-89.9m4.7 89.9v-90m4.6 90V237.6m4.7 106.7V238m4.7 106.3v-97.4m4.6 97.4V238.6m4.7 105.7V239.8m4.6 104.5V242.2m4.7 102V230.4m4.6 114V209.8m4.7 134.5V216m4.6 128.2v-149m4.7 149V193.9m4.7 150.4v-130m4.6 130V185.5m4.7 158.8v-167m4.6 167V223m4.7 121.3V170.5m4.6 173.8V225.5m4.7 118.8v-112m4.6 112V190.7m4.7 153.6V195.7m4.6 148.6V191m4.7 153.3V199.5m4.7 144.8V186m4.6 158.3V180.9m4.7 163.4V234m4.6 110.3V216.7m4.7 127.6V215m4.6 129.3V203m4.7 141.3v-183m4.6 183V136.7m4.7 207.6V159.7m4.7 184.6V214.4m4.6 129.9V212.9m4.7 131.4V222m4.6 122.3V221.5m4.7 122.8V212.5m4.6 131.8V188.6m4.7 155.7V160.4m4.6 183.9V186m4.7 158.3V174.4m4.7 169.9V194.7m4.6 149.6V180m4.7 164.2v-189m4.6 189V116.2m4.7 228V225.5m4.6 118.9V234m4.7 110.3V235.7m4.6 108.6V234m4.7 110.2V238.8m4.7 105.5V138.4m4.6 205.9V152.8m4.7 191.5v-215m4.6 215V142.6m4.7 201.7V186.6m4.6 157.7V197.5m4.7 146.8V237.5m4.6 106.8V228.8m4.7 115.5v-144m4.7 144V201.5m4.6 142.8v-156m4.7 156V242.9m4.6 101.4V240.7m4.7 103.6V166.8m4.6 177.5V173.5m4.7 170.8V173.6m4.6 170.7v-100m4.7 100V234.7m4.6 109.6V202m4.7 142.2V188m4.7 156.2V191m4.6 153.3V226.7m4.7 117.6V222.4m4.6 121.9V216.4m4.7 127.9V205m4.6 139.2V204m4.7 140.3V169.7m4.6 174.6V195.7m4.7 148.6V212.7m4.7 131.6V208m4.6 136.3V196.6m4.7 147.7v-141m4.6 141V209m4.7 135.3V182.2m4.6 162V182.8m4.7 161.6V161.4m4.6 182.9V171.9m4.7 172.4v-220m4.7 220V147m4.6 197.3v-176m4.7 176V198.8m4.6 145.5V207.5m4.7 136.8v-244m4.6 244V168m4.7 176.3V101m4.6 243.3V203.6m4.7 140.7V224.6m4.7 119.7V199.6m4.6 144.7V204.8m4.7 139.5v-133m4.6 133v-87.5m4.7 87.5V238.7m4.6 105.6V214.9m4.7 129.4V216.5m4.6 127.8V225.7m4.7 118.6v-145m4.7 145v-165m4.6 165v-160m4.7 160V215.6m4.6 128.7V207.9m4.7 136.4V188.2m4.6 156V201m4.7 143.3V188m4.6 156.3v-137m4.7 137V151.9m4.6 192.4V213.2m4.7 131v-158m4.7 158V255m4.6 89.4V234.6m4.7 109.7V196.5m4.6 147.8V208.9m4.7 135.4V193m4.6 151.2V199.5m4.7 144.8V183.5m4.6 160.8V179m4.7 165.3V196.4m4.7 147.9V179.8m4.6 164.5V185.2m4.7 159V208.7m4.6 135.7V168.9m4.7 175.4V207m4.6 137.2V212m4.7 132.3V204.8m4.6 139.5V186.4m4.7 157.9V190.4m4.7 153.9V218.9m4.6 125.4V224.5m4.7 119.8v-157m4.6 157V194m4.7 150.2V188.9m4.6 155.4V141.5m4.7 202.8V175.4m4.6 168.9v-103m4.7 103V167.8m4.7 176.5v-177m4.6 177V190.9m4.7 153.4V152.6m4.6 191.7V149.5m4.7 194.8V114.7m4.6 229.6v-173m4.7 173v-122m4.6 122V192.7m4.7 151.6V164.9m4.6 179.4V166.2m4.7 178v-163m4.7 163V212.9m4.6 131.5V194m4.7 150.2V215.5m4.6 128.8v-142m4.7 142v-140m4.6 140V206.4m4.7 137.9V228.9m4.6 115.4v-136m4.7 136V162m4.7 182.2v-192m4.6 192V170m4.7 174.3V190.8m4.6 153.5V185.5m4.7 158.8V196.6m4.6 147.7V179.2m4.7 165V205m4.6 139.3V219m4.7 125.3V233m4.7 111.2V230.5m4.6 113.8v-76m4.7 76V223.5m4.6 120.8V222m4.7 122.2V217.5m4.6 126.8v-222m4.7 222V183.8m4.6 160.5V208.8m4.7 135.5V190.4m4.7 153.9V188.2m4.6 156v-96.8m4.7 96.9v-96m4.6 96v-97m4.7 97v-43.1m4.6 43v-69.9m4.7 70v-109m4.6 109V220m4.7 124.2v-120m4.7 120V204.6m4.6 139.7V239.6m4.7 104.7V227.4m4.6 116.9V219.9m4.7 124.4V224.7m4.6 119.6V224.6m4.7 119.7V219.7" style="stroke-width:3.6207874;stroke-dasharray:none"/>
  <path fill="#2f4b74" stroke="#2f4b74" stroke-linecap="round" stroke-width="5.1" d="M142.9 258.7v-143m4.6 143v-89.9m4.7 89.9v-90m4.6 90V152m4.7 106.7V152.4m4.7 106.3v-97.4m4.6 97.4V153m4.7 105.6V154.2m4.6 104.5V156.6m4.7 102V144.9m4.6 113.9V124.2m4.7 134.5V130.5m4.6 128.2v-149m4.7 149V108.3m4.7 150.4v-130m4.6 130V99.9m4.7 158.8v-167m4.6 167V137.4m4.7 121.3V84.9m4.6 173.8V139.9m4.7 118.8v-112m4.6 112V105m4.7 153.6V110m4.6 148.6V105.4m4.7 153.3V113.9m4.7 144.8V100.4m4.6 158.3V95.3m4.7 163.4V148.4m4.6 110.3V131m4.7 127.6V129.4m4.6 129.3V117.4m4.7 141.3v-183m4.6 183V51m4.7 207.6V74m4.7 184.6V128.8m4.6 129.9V127.3m4.7 131.4V136.5m4.6 122.2V135.9m4.7 122.8V126.9m4.6 131.8V103m4.7 155.7V74.8m4.6 183.9V100.4m4.7 158.3V88.8m4.7 169.9V109m4.6 149.6V94.5m4.7 164.2v-189m4.6 189V30.6m4.7 228V139.9m4.6 118.9V148.4m4.7 110.3V150m4.6 108.6V148.5m4.7 110.2V153.2m4.7 105.5V52.8m4.6 205.9V67.2m4.7 191.5v-215m4.6 215V57m4.7 201.7V101m4.6 157.7V111.9m4.7 146.8V151.9m4.6 106.8V143.2m4.7 115.5v-144m4.7 144V115.9m4.6 142.8v-156m4.7 156V157.3m4.6 101.4V155m4.7 103.6V81.2m4.6 177.5V87.9m4.7 170.8V88m4.6 170.7v-100m4.7 100V149m4.6 109.6V116.5m4.7 142.2V102.5m4.7 156.2V105.4m4.6 153.3V141m4.7 117.6V136.8m4.6 121.9V130.8m4.7 127.9V119.6m4.6 139V118.5m4.7 140.3V84m4.6 174.6V110m4.7 148.6V127m4.7 131.6V122.4m4.6 136.3V111m4.7 147.7v-141m4.6 141V123.4m4.7 135.3V96.6m4.6 162V97.2m4.7 161.6V75.8m4.6 182.9V86.3m4.7 172.4v-220m4.7 220V61.4m4.6 197.3v-176m4.7 176V113.2m4.6 145.5V121.9m4.7 136.8v-244m4.6 244V82.4m4.7 176.3V15.4m4.6 243.3V118m4.7 140.7V139m4.7 119.7V114m4.6 144.7V119.2m4.7 139.5v-133m4.6 133v-87.5m4.7 87.5V153m4.6 105.6V129.3m4.7 129.4V130.9m4.6 127.8V140m4.7 118.6v-145m4.7 145v-165m4.6 165v-160m4.7 160V130m4.6 128.7V122.3m4.7 136.4V102.6m4.6 156V115.5m4.7 143.3V102.4m4.6 156.3v-137m4.7 137V66.3m4.6 192.4V127.6m4.7 131v-158m4.7 158v-89.2m4.6 89.3V149m4.7 109.7V110.9m4.6 147.8V123.3m4.7 135.4V107.5m4.6 151.2V113.9m4.7 144.8V97.9m4.6 160.8V93.4m4.7 165.3V110.8m4.7 147.9V94.2m4.6 164.5V99.6m4.7 159V123m4.6 135.7V83.3m4.7 175.4V121.5m4.6 137.2V126.4m4.7 132.3V119.2m4.6 139.5V100.8m4.7 157.9V104.8m4.7 153.9V133.3m4.6 125.4V138.9m4.7 119.8v-157m4.6 157V108.5m4.7 150.2V103.3m4.6 155.4V55.9m4.7 202.8V89.8m4.6 168.9v-103m4.7 103V82.3m4.7 176.4v-177m4.6 177V105.3m4.7 153.4V67m4.6 191.7V63.9m4.7 194.8V29m4.6 229.6v-173m4.7 173v-122m4.6 122V107m4.7 151.6V79.3m4.6 179.4V80.6m4.7 178v-163m4.7 163V127.3m4.6 131.5V108.5m4.7 150.2V129.9m4.6 128.8v-142m4.7 142v-140m4.6 140V120.8m4.7 137.9V143.3m4.6 115.4v-136m4.7 136V76.5m4.7 182.2v-192m4.6 192V84.4m4.7 174.3V105.2m4.6 153.5V99.9m4.7 158.8V111m4.6 147.7V93.6m4.7 165V119.5m4.6 139.3V133.4m4.7 125.3V147.5m4.7 111.2V144.9m4.6 113.8v-76m4.7 76V137.9m4.6 120.8V136.5m4.7 122.2V131.9m4.6 126.8v-222m4.7 222V98.2m4.6 160.5V123.2m4.7 135.5V104.8m4.7 153.9V102.6m4.6 156v-96.8m4.7 96.9v-96m4.6 96v-97m4.7 97v-43.1m4.6 43v-69.9m4.7 70v-109m4.6 109V134.5m4.7 124.2v-120m4.7 120V119m4.6 139.7V154m4.7 104.7V141.8m4.6 116.9V134.3m4.7 124.4V139m4.6 119.6V139m4.7 119.7V134" clip-path="url(#a)" style="stroke-width:3.62079;stroke-dasharray:none"/>
  <image xlink:href="Panorama_of_United_States_Supreme_Court_Building_at_Dusk%20(1).png" width="1212.2" height="624.6" preserveAspectRatio="none"/>
</svg>
